<svg xmlns="http://www.w3.org/2000/svg" xmlns:v="https://svgstorm.com" viewBox="0 0 384 384" width="384" height="384">
    <g fill="None" fill-opacity="0.0" stroke="#000000" stroke-opacity="0.00" stroke-width="0.3">
        <path
            d="
M 0.00 384.00 
L 384.00 384.00
L 384.00 0.00
L 0.00 0.00
L 0.00 384.00
M 196.00 72.00 
C 243.46 76.59 289.02 104.77 303.93 154.07 C 318.83 203.38 301.55 257.65 258.75 288.75 C 215.96 319.86 157.84 317.48 115.75 286.25 C 73.66 255.01 60.54 193.23 79.92 147.92 C 99.31 102.62 145.71 67.13 196.00 72.00 Z" />
    </g>
    <g fill="None" fill-opacity="0.0" stroke="#030201" stroke-opacity="1.00" stroke-width="0.3">
        <path d="
M 196.00 72.00 
C 145.71 67.13 99.31 102.62 79.92 147.92 C 60.54 193.23 73.66 255.01 115.75 286.25 C 157.84 317.48 215.96 319.86 258.75 288.75 C 301.55 257.65 318.83 203.38 303.93 154.07 C 289.02 104.77 243.46 76.59 196.00 72.00
M 220.00 82.00 
C 220.41 82.19 221.50 81.98 222.00 82.00
C 241.75 82.81 257.43 98.76 272.25 111.75 C 287.07 124.74 295.45 143.66 300.98 163.02 C 306.50 182.39 304.31 213.65 296.22 232.22 C 288.13 250.80 278.71 265.75 262.77 278.77 C 246.83 291.79 228.51 301.60 208.00 304.00
C 208.92 300.65 205.92 298.79 205.00 296.00
C 204.13 294.96 198.93 289.26 198.00 289.00
C 194.54 288.44 196.24 302.48 193.00 306.00
C 188.33 306.00 183.67 306.00 179.00 306.00
C 177.48 298.70 178.73 290.68 175.00 284.00
C 174.05 282.59 172.00 281.56 171.00 280.00
C 163.36 268.13 183.75 269.29 190.01 271.99 C 196.26 274.69 216.53 274.73 216.97 263.97 C 217.42 253.22 226.60 249.89 235.69 245.69 C 244.79 241.50 250.36 237.12 257.75 230.75 C 265.14 224.39 268.44 217.32 272.77 208.77 C 277.10 200.22 278.37 187.04 278.00 177.00 C 277.63 166.96 273.26 157.19 269.70 148.31 C 266.13 139.42 259.65 134.43 253.75 127.25 C 247.86 120.07 235.16 118.23 235.00 110.00
C 231.59 115.06 227.47 110.06 223.00 110.00
C 223.49 101.78 222.48 93.98 222.00 86.00
C 221.86 86.69 221.10 87.78 221.00 89.00
C 220.46 95.29 221.40 101.70 221.00 108.00
C 217.34 106.33 207.78 108.34 206.08 103.92 C 204.39 99.49 206.42 92.14 203.00 88.00
C 202.73 87.75 201.17 88.24 201.00 88.00
C 202.73 93.46 204.57 98.93 204.00 105.00
C 177.88 101.58 150.49 106.56 130.00 123.00
C 127.51 125.30 124.17 128.51 122.00 131.00
C 112.38 143.93 109.09 159.80 110.00 176.00 C 110.91 192.20 120.22 204.66 123.00 220.00
C 123.01 219.85 123.95 218.70 124.00 218.00
C 119.85 204.48 114.29 189.46 114.00 175.00
C 113.53 171.07 113.44 166.89 114.00 163.00
C 114.39 152.71 117.85 142.10 124.25 134.25 C 130.64 126.40 136.84 121.10 145.75 116.75 C 154.65 112.39 166.06 108.76 176.00 108.00 C 185.94 107.25 203.97 102.91 206.00 115.00
C 207.81 103.76 223.25 113.39 231.23 116.77 C 239.21 120.16 247.42 126.40 253.75 133.25 C 260.08 140.10 265.59 148.10 268.92 157.08 C 272.25 166.05 275.54 180.98 274.00 191.00 C 272.46 201.02 268.64 211.13 263.23 219.23 C 257.82 227.33 251.17 233.07 243.30 238.30 C 235.44 243.54 225.95 249.06 217.00 252.00
C 218.28 278.60 184.98 268.58 169.00 267.00
C 174.44 268.45 167.06 279.72 162.00 278.00
C 165.59 281.11 171.74 280.34 173.77 286.23 C 175.80 292.12 176.57 298.46 176.00 305.00
C 170.84 304.99 165.09 304.60 161.00 302.00
C 160.59 301.81 159.50 302.02 159.00 302.00
C 154.76 301.83 151.48 299.39 148.00 298.00
C 146.57 297.43 146.03 297.45 145.00 297.00
C 143.84 296.50 142.30 296.27 141.00 296.00
C 141.60 292.44 143.37 289.23 145.00 286.00
C 147.00 282.99 150.10 280.02 153.00 278.00
C 153.20 277.60 153.00 277.00 153.00 277.00
C 153.00 275.00 153.00 273.00 153.00 271.00
C 153.00 270.50 153.00 270.00 153.00 270.00
C 153.02 270.08 152.02 270.66 152.00 271.00
C 151.47 280.93 140.89 284.34 139.00 294.00
C 97.26 275.87 72.44 229.19 76.00 184.00
C 76.10 182.36 76.79 181.04 77.00 180.00
C 78.67 158.89 87.98 137.69 101.25 121.25 C 114.53 104.82 129.66 93.51 149.07 86.07 C 168.49 78.64 199.89 72.38 220.00 82.00
M 207.00 305.00 
C 203.06 304.28 199.90 306.49 196.00 306.00
C 195.84 301.14 198.78 297.05 198.00 292.00
C 202.66 295.02 205.71 299.86 207.00 305.00 Z" />
    </g>
    <g fill="None" fill-opacity="0.0" stroke="#FBFBFB" stroke-opacity="1.00" stroke-width="0.3">
        <path
            d="
M 77.00 180.00 
C 76.88 181.54 76.16 183.06 76.00 184.00
C 72.44 229.19 97.26 275.87 139.00 294.00
C 140.89 284.34 151.47 280.93 152.00 271.00
C 147.20 267.85 150.99 263.15 142.77 261.23 C 134.55 259.30 124.55 253.57 118.75 247.25 C 112.95 240.93 115.73 237.83 116.98 231.98 C 118.22 226.12 122.57 225.19 123.00 220.00
C 120.22 204.66 110.91 192.20 110.00 176.00 C 109.09 159.80 112.38 143.93 122.00 131.00
C 124.25 127.97 127.10 125.29 130.00 123.00
C 150.49 106.56 177.88 101.58 204.00 105.00
C 204.57 98.93 202.73 93.46 201.00 88.00
C 200.27 85.68 198.20 81.81 200.00 80.00
C 201.42 82.55 202.45 85.16 203.00 88.00
C 206.42 92.14 204.39 99.49 206.08 103.92 C 207.78 108.34 217.34 106.33 221.00 108.00
C 221.40 101.70 220.46 95.29 221.00 89.00
C 220.85 87.49 218.92 84.18 220.00 82.00
C 199.89 72.38 168.49 78.64 149.07 86.07 C 129.66 93.51 114.53 104.82 101.25 121.25 C 87.98 137.69 78.67 158.89 77.00 180.00 Z" />
    </g>
    <g fill="None" fill-opacity="0.0" stroke="#464646" stroke-opacity="1.00" stroke-width="0.3">
        <path d="
M 201.00 88.00 
C 201.17 88.24 202.73 87.75 203.00 88.00
C 202.45 85.16 201.42 82.55 200.00 80.00
C 198.20 81.81 200.27 85.68 201.00 88.00 Z" />
    </g>
    <g fill="None" fill-opacity="0.0" stroke="#515151" stroke-opacity="1.00" stroke-width="0.3">
        <path d="
M 221.00 89.00 
C 221.10 87.78 221.86 86.69 222.00 86.00
C 222.00 85.49 222.34 82.25 222.00 82.00
C 221.50 81.98 220.41 82.19 220.00 82.00
C 218.92 84.18 220.85 87.49 221.00 89.00 Z" />
    </g>
    <g fill="None" fill-opacity="0.0" stroke="#FBFBFB" stroke-opacity="1.00" stroke-width="0.3">
        <path d="
M 222.00 86.00 
C 222.48 93.98 223.49 101.78 223.00 110.00
C 227.47 110.06 231.59 115.06 235.00 110.00
C 235.16 118.23 247.86 120.07 253.75 127.25 C 259.65 134.43 266.13 139.42 269.70 148.31 C 273.26 157.19 277.63 166.96 278.00 177.00 C 278.37 187.04 277.10 200.22 272.77 208.77 C 268.44 217.32 265.14 224.39 257.75 230.75 C 250.36 237.12 244.79 241.50 235.69 245.69 C 226.60 249.89 217.42 253.22 216.97 263.97 C 216.53 274.73 196.26 274.69 190.01 271.99 C 183.75 269.29 163.36 268.13 171.00 280.00
C 172.14 281.49 174.00 282.25 175.00 284.00
C 178.73 290.68 177.48 298.70 179.00 306.00
C 183.67 306.00 188.33 306.00 193.00 306.00
C 196.24 302.48 194.54 288.44 198.00 289.00
C 200.37 289.38 203.75 294.25 205.00 296.00
C 205.92 298.79 208.92 300.65 208.00 304.00
C 228.51 301.60 246.83 291.79 262.77 278.77 C 278.71 265.75 288.13 250.80 296.22 232.22 C 304.31 213.65 306.50 182.39 300.98 163.02 C 295.45 143.66 287.07 124.74 272.25 111.75 C 257.43 98.76 241.75 82.81 222.00 82.00
C 222.34 82.25 222.00 85.49 222.00 86.00
M 240.00 101.00 
C 237.72 103.34 238.75 108.58 235.00 109.00
C 237.28 106.66 236.25 101.42 240.00 101.00 Z" />
    </g>
    <g fill="None" fill-opacity="0.0" stroke="#434343" stroke-opacity="1.00" stroke-width="0.3">
        <path d="
M 240.00 101.00 
C 236.25 101.42 237.28 106.66 235.00 109.00
C 238.75 108.58 237.72 103.34 240.00 101.00 Z" />
    </g>
    <g fill="None" fill-opacity="0.0" stroke="#F7EE04" stroke-opacity="1.00" stroke-width="0.3">
        <path d="
M 114.00 163.00 
C 113.85 166.98 113.92 171.02 114.00 175.00
C 114.29 189.46 119.85 204.48 124.00 218.00
C 126.53 226.24 112.86 241.17 125.25 248.75 C 137.63 256.33 143.98 258.21 156.00 265.00
C 153.46 266.19 151.09 266.38 153.00 270.00
C 153.00 270.00 153.00 270.50 153.00 271.00
C 154.41 272.81 154.39 275.22 153.00 277.00
C 153.00 277.00 153.20 277.60 153.00 278.00
C 151.32 281.43 147.17 283.23 145.00 286.00
C 143.37 289.23 141.60 292.44 141.00 296.00
C 142.30 296.27 143.84 296.50 145.00 297.00
C 146.53 296.26 145.67 293.23 148.00 293.00
C 148.00 294.67 148.00 296.33 148.00 298.00
C 151.48 299.39 154.76 301.83 159.00 302.00
C 158.56 300.83 159.34 299.21 159.00 298.00
C 160.83 298.49 161.18 300.35 161.00 302.00
C 165.09 304.60 170.84 304.99 176.00 305.00
C 176.57 298.46 175.80 292.12 173.77 286.23 C 171.74 280.34 165.59 281.11 162.00 278.00
C 167.06 279.72 174.44 268.45 169.00 267.00
C 184.98 268.58 218.28 278.60 217.00 252.00
C 225.95 249.06 235.44 243.54 243.30 238.30 C 251.17 233.07 257.82 227.33 263.23 219.23 C 268.64 211.13 272.46 201.02 274.00 191.00 C 275.54 180.98 272.25 166.05 268.92 157.08 C 265.59 148.10 260.08 140.10 253.75 133.25 C 247.42 126.40 239.21 120.16 231.23 116.77 C 223.25 113.39 207.81 103.76 206.00 115.00
C 203.97 102.91 185.94 107.25 176.00 108.00 C 166.06 108.76 154.65 112.39 145.75 116.75 C 136.84 121.10 130.64 126.40 124.25 134.25 C 117.85 142.10 114.39 152.71 114.00 163.00
M 145.00 127.00 
C 137.38 126.92 135.19 135.81 131.00 140.00
C 132.11 134.08 137.80 123.24 145.00 127.00
M 147.00 138.00 
C 147.76 146.34 146.72 154.37 150.00 162.00
C 161.55 166.29 160.82 180.00 161.00 191.00 C 161.18 202.00 159.76 214.52 154.00 224.00
C 152.26 226.84 150.99 229.30 149.00 229.00
C 143.93 228.24 140.39 219.71 134.00 222.00
C 137.58 213.63 131.92 201.25 133.00 191.00
C 133.08 189.03 133.74 187.34 134.00 186.00
C 134.57 179.44 137.23 174.15 139.00 168.00
C 137.11 168.06 135.71 166.58 134.00 166.00
C 132.41 164.94 130.84 163.72 130.00 162.00
C 129.80 161.60 130.00 161.00 130.00 161.00
C 127.54 158.74 126.06 156.24 125.00 153.00
C 124.69 152.05 123.26 150.58 124.00 149.00
C 125.01 149.55 125.44 150.98 126.00 152.00
C 129.31 154.93 130.16 161.00 134.00 164.00
C 136.45 165.59 144.33 168.48 142.21 163.77 C 140.10 159.06 135.60 158.62 136.00 153.00
C 134.12 152.07 134.39 149.75 134.00 148.00
C 133.74 146.84 132.17 144.82 133.00 143.00
C 134.11 143.84 135.04 145.46 135.00 147.00
C 135.76 148.94 136.12 151.02 137.00 153.00
C 139.04 157.61 143.28 165.06 149.00 163.00
C 145.88 155.29 143.57 146.45 146.00 138.00
C 146.25 136.72 147.63 135.56 147.00 134.00
C 148.34 134.47 148.57 137.58 147.00 138.00
M 243.00 151.00 
C 251.73 151.03 257.21 167.10 255.00 174.00
C 254.89 174.87 253.80 175.84 253.00 176.00
C 253.00 173.33 253.00 170.67 253.00 168.00
C 252.46 160.08 248.46 156.77 243.00 152.00
C 240.63 151.20 240.96 149.75 243.00 151.00
M 229.00 162.00 
C 228.14 164.17 227.78 166.41 226.00 168.00
C 223.93 171.64 221.11 175.42 219.00 179.00
C 221.23 179.52 222.73 177.46 225.00 178.00
C 230.14 172.25 240.13 168.51 244.00 161.00
C 241.00 169.44 233.06 175.54 225.00 179.00
C 218.21 180.51 228.45 182.95 232.00 182.00 C 235.55 181.05 240.86 180.46 244.00 178.00
C 244.52 177.17 244.89 176.17 246.00 176.00
C 246.94 175.07 247.43 173.21 249.00 173.00
C 249.27 174.28 248.23 175.72 247.00 176.00
C 246.26 177.76 244.46 179.03 243.00 180.00
C 238.09 184.49 230.29 183.96 224.00 184.00
C 224.93 185.14 225.08 186.55 225.00 188.00
C 225.19 190.59 225.43 193.36 225.00 196.00
C 224.56 204.09 218.76 213.80 216.69 220.69 C 214.63 227.59 203.52 235.07 205.00 240.00
C 205.86 240.30 206.85 241.05 207.00 242.00
C 206.00 241.89 204.27 242.47 204.00 241.00
C 198.03 241.16 190.96 238.22 185.00 241.00
C 182.76 224.48 188.03 210.12 193.92 194.92 C 199.82 179.73 216.08 179.77 225.00 168.00
C 225.66 165.90 227.11 164.01 228.00 162.00
C 228.99 159.76 230.02 157.54 230.00 155.00
C 232.10 156.58 230.31 160.55 229.00 162.00
M 180.00 247.00 
C 178.47 248.84 174.91 248.12 173.00 247.00
C 167.60 256.61 148.79 253.50 149.00 241.00
C 146.45 241.91 142.74 242.78 141.00 240.00
C 149.11 237.45 152.84 230.72 163.02 232.98 C 173.21 235.23 170.02 247.06 180.00 247.00 Z" />
    </g>
    <g fill="None" fill-opacity="0.0" stroke="#787773" stroke-opacity="1.00" stroke-width="0.3">
        <path d="
M 122.00 131.00 
C 124.17 128.51 127.51 125.30 130.00 123.00
C 127.10 125.29 124.25 127.97 122.00 131.00 Z" />
    </g>
    <g fill="None" fill-opacity="0.0" stroke="#4C430E" stroke-opacity="1.00" stroke-width="0.3">
        <path d="
M 145.00 127.00 
C 137.80 123.24 132.11 134.08 131.00 140.00
C 135.19 135.81 137.38 126.92 145.00 127.00 Z" />
    </g>
    <g fill="None" fill-opacity="0.0" stroke="#656116" stroke-opacity="1.00" stroke-width="0.3">
        <path d="
M 146.00 138.00 
C 146.04 137.87 147.00 138.00 147.00 138.00
C 148.57 137.58 148.34 134.47 147.00 134.00
C 147.63 135.56 146.25 136.72 146.00 138.00 Z" />
    </g>
    <g fill="None" fill-opacity="0.0" stroke="#0C0C07" stroke-opacity="1.00" stroke-width="0.3">
        <path d="
M 137.00 153.00 
C 136.88 152.78 136.00 153.00 136.00 153.00
C 135.60 158.62 140.10 159.06 142.21 163.77 C 144.33 168.48 136.45 165.59 134.00 164.00
C 132.70 163.16 131.09 162.00 130.00 161.00
C 130.00 161.00 129.80 161.60 130.00 162.00
C 131.58 163.10 132.66 164.95 134.00 166.00
C 135.71 166.58 137.11 168.06 139.00 168.00
C 137.23 174.15 134.57 179.44 134.00 186.00
C 133.85 187.74 133.16 189.88 133.00 191.00
C 131.92 201.25 137.58 213.63 134.00 222.00
C 140.39 219.71 143.93 228.24 149.00 229.00
C 149.78 226.94 152.72 225.64 154.00 224.00
C 159.76 214.52 161.18 202.00 161.00 191.00 C 160.82 180.00 161.55 166.29 150.00 162.00
C 146.72 154.37 147.76 146.34 147.00 138.00
C 147.00 138.00 146.04 137.87 146.00 138.00
C 143.57 146.45 145.88 155.29 149.00 163.00
C 143.28 165.06 139.04 157.61 137.00 153.00
M 159.00 184.00 
C 159.30 186.43 159.25 188.15 159.00 191.00
C 158.69 194.53 160.04 199.30 158.00 202.00
C 153.41 189.99 142.66 204.76 144.00 212.00
C 143.82 214.57 144.50 217.47 144.00 220.00
C 143.81 220.96 144.15 222.03 144.00 223.00
C 143.17 222.59 142.13 222.03 142.00 221.00
C 141.71 220.75 140.50 221.02 140.00 221.00
C 134.99 220.84 136.00 204.10 136.00 200.00
C 135.69 196.75 135.54 193.24 136.00 190.00
C 136.35 180.83 137.31 172.10 146.08 166.08 C 154.86 160.06 158.15 177.19 159.00 184.00 Z" />
    </g>
    <g fill="None" fill-opacity="0.0" stroke="#7E7715" stroke-opacity="1.00" stroke-width="0.3">
        <path d="
M 134.00 148.00 
C 134.06 147.65 134.99 147.18 135.00 147.00
C 135.04 145.46 134.11 143.84 133.00 143.00
C 132.17 144.82 133.74 146.84 134.00 148.00 Z" />
    </g>
    <g fill="None" fill-opacity="0.0" stroke="#48410F" stroke-opacity="1.00" stroke-width="0.3">
        <path d="
M 134.00 148.00 
C 134.39 149.75 134.12 152.07 136.00 153.00
C 136.00 153.00 136.88 152.78 137.00 153.00
C 136.12 151.02 135.76 148.94 135.00 147.00
C 134.99 147.18 134.06 147.65 134.00 148.00 Z" />
    </g>
    <g fill="None" fill-opacity="0.0" stroke="#9A9019" stroke-opacity="1.00" stroke-width="0.3">
        <path d="
M 125.00 153.00 
C 124.99 152.67 126.01 152.13 126.00 152.00
C 125.44 150.98 125.01 149.55 124.00 149.00
C 123.26 150.58 124.69 152.05 125.00 153.00 Z" />
    </g>
    <g fill="None" fill-opacity="0.0" stroke="#898418" stroke-opacity="1.00" stroke-width="0.3">
        <path d="
M 243.00 152.00 
C 242.75 151.78 243.00 151.00 243.00 151.00
C 240.96 149.75 240.63 151.20 243.00 152.00 Z" />
    </g>
    <g fill="None" fill-opacity="0.0" stroke="#2E2B0C" stroke-opacity="1.00" stroke-width="0.3">
        <path d="
M 243.00 152.00 
C 248.46 156.77 252.46 160.08 253.00 168.00
C 253.20 168.96 255.10 173.22 255.00 174.00
C 257.21 167.10 251.73 151.03 243.00 151.00
C 243.00 151.00 242.75 151.78 243.00 152.00 Z" />
    </g>
    <g fill="None" fill-opacity="0.0" stroke="#49430F" stroke-opacity="1.00" stroke-width="0.3">
        <path d="
M 125.00 153.00 
C 126.06 156.24 127.54 158.74 130.00 161.00
C 131.09 162.00 132.70 163.16 134.00 164.00
C 130.16 161.00 129.31 154.93 126.00 152.00
C 126.01 152.13 124.99 152.67 125.00 153.00 Z" />
    </g>
    <g fill="None" fill-opacity="0.0" stroke="#6D6718" stroke-opacity="1.00" stroke-width="0.3">
        <path d="
M 228.00 162.00 
C 228.12 161.78 229.00 162.00 229.00 162.00
C 230.31 160.55 232.10 156.58 230.00 155.00
C 230.02 157.54 228.99 159.76 228.00 162.00 Z" />
    </g>
    <g fill="None" fill-opacity="0.0" stroke="#524E12" stroke-opacity="1.00" stroke-width="0.3">
        <path d="
M 225.00 178.00 
C 224.75 178.28 225.00 179.00 225.00 179.00
C 233.06 175.54 241.00 169.44 244.00 161.00
C 240.13 168.51 230.14 172.25 225.00 178.00 Z" />
    </g>
    <g fill="None" fill-opacity="0.0" stroke="#7D791B" stroke-opacity="1.00" stroke-width="0.3">
        <path d="
M 134.00 166.00 
C 132.66 164.95 131.58 163.10 130.00 162.00
C 130.84 163.72 132.41 164.94 134.00 166.00 Z" />
    </g>
    <g fill="None" fill-opacity="0.0" stroke="#3A380D" stroke-opacity="1.00" stroke-width="0.3">
        <path d="
M 225.00 168.00 
C 225.22 167.75 226.00 168.00 226.00 168.00
C 227.78 166.41 228.14 164.17 229.00 162.00
C 229.00 162.00 228.12 161.78 228.00 162.00
C 227.11 164.01 225.66 165.90 225.00 168.00 Z" />
    </g>
    <g fill="None" fill-opacity="0.0" stroke="#90871D" stroke-opacity="1.00" stroke-width="0.3">
        <path d="
M 114.00 175.00 
C 113.92 171.02 113.85 166.98 114.00 163.00
C 113.44 166.89 113.53 171.07 114.00 175.00 Z" />
    </g>
    <g fill="None" fill-opacity="0.0" stroke="#F4F3F3" stroke-opacity="1.00" stroke-width="0.3">
        <path d="
M 136.00 190.00 
C 135.87 193.32 136.00 196.68 136.00 200.00
C 136.00 204.10 134.99 220.84 140.00 221.00
C 139.66 220.74 140.00 217.51 140.00 217.00
C 139.50 213.31 139.41 209.65 140.00 206.00
C 140.49 196.93 147.89 171.50 158.00 187.00
C 159.39 186.74 158.78 184.95 159.00 184.00
C 158.15 177.19 154.86 160.06 146.08 166.08 C 137.31 172.10 136.35 180.83 136.00 190.00 Z" />
    </g>
    <g fill="None" fill-opacity="0.0" stroke="#0D0E0A" stroke-opacity="1.00" stroke-width="0.3">
        <path d="
M 204.00 241.00 
C 204.34 240.99 205.08 240.26 205.00 240.00
C 203.52 235.07 214.63 227.59 216.69 220.69 C 218.76 213.80 224.56 204.09 225.00 196.00
C 225.14 193.34 224.89 190.66 225.00 188.00
C 225.08 186.55 224.93 185.14 224.00 184.00
C 230.29 183.96 238.09 184.49 243.00 180.00
C 243.53 179.52 243.65 178.55 244.00 178.00
C 240.86 180.46 235.55 181.05 232.00 182.00 C 228.45 182.95 218.21 180.51 225.00 179.00
C 225.00 179.00 224.75 178.28 225.00 178.00
C 222.73 177.46 221.23 179.52 219.00 179.00
C 221.11 175.42 223.93 171.64 226.00 168.00
C 226.00 168.00 225.22 167.75 225.00 168.00
C 216.08 179.77 199.82 179.73 193.92 194.92 C 188.03 210.12 182.76 224.48 185.00 241.00
C 190.96 238.22 198.03 241.16 204.00 241.00
M 197.00 208.00 
C 197.28 207.75 198.00 208.00 198.00 208.00
C 200.41 203.81 208.43 192.75 214.67 196.33 C 220.91 199.91 217.68 213.99 215.00 219.00
C 209.56 199.17 188.70 226.65 196.00 238.00
C 189.79 239.98 189.31 234.78 190.00 230.00
C 189.51 230.08 189.00 230.00 189.00 230.00
C 188.74 232.98 189.19 236.02 189.00 239.00
C 182.66 233.99 187.45 221.45 188.93 213.93 C 190.40 206.41 193.85 197.67 198.25 191.25 C 202.66 184.84 208.42 177.78 217.22 180.78 C 226.03 183.78 222.42 197.65 221.00 205.00
C 220.39 199.43 215.20 191.37 208.93 194.93 C 202.65 198.49 199.80 202.07 197.00 208.00 Z" />
    </g>
    <g fill="None" fill-opacity="0.0" stroke="#908B1F" stroke-opacity="1.00" stroke-width="0.3">
        <path d="
M 255.00 174.00 
C 255.10 173.22 253.20 168.96 253.00 168.00
C 253.00 170.67 253.00 173.33 253.00 176.00
C 253.80 175.84 254.89 174.87 255.00 174.00 Z" />
    </g>
    <g fill="None" fill-opacity="0.0" stroke="#90881B" stroke-opacity="1.00" stroke-width="0.3">
        <path d="
M 246.00 176.00 
C 246.49 175.93 247.00 176.00 247.00 176.00
C 248.23 175.72 249.27 174.28 249.00 173.00
C 247.43 173.21 246.94 175.07 246.00 176.00 Z" />
    </g>
    <g fill="None" fill-opacity="0.0" stroke="#666218" stroke-opacity="1.00" stroke-width="0.3">
        <path d="
M 244.00 178.00 
C 243.65 178.55 243.53 179.52 243.00 180.00
C 244.46 179.03 246.26 177.76 247.00 176.00
C 247.00 176.00 246.49 175.93 246.00 176.00
C 244.89 176.17 244.52 177.17 244.00 178.00 Z" />
    </g>
    <g fill="None" fill-opacity="0.0" stroke="#767676" stroke-opacity="1.00" stroke-width="0.3">
        <path d="
M 76.00 184.00 
C 76.16 183.06 76.88 181.54 77.00 180.00
C 76.79 181.04 76.10 182.36 76.00 184.00 Z" />
    </g>
    <g fill="None" fill-opacity="0.0" stroke="#F0F0F0" stroke-opacity="1.00" stroke-width="0.3">
        <path d="
M 189.00 230.00 
C 189.08 229.02 188.54 227.24 190.00 227.00
C 191.53 220.86 191.93 212.53 197.00 208.00
C 199.80 202.07 202.65 198.49 208.93 194.93 C 215.20 191.37 220.39 199.43 221.00 205.00
C 222.42 197.65 226.03 183.78 217.22 180.78 C 208.42 177.78 202.66 184.84 198.25 191.25 C 193.85 197.67 190.40 206.41 188.93 213.93 C 187.45 221.45 182.66 233.99 189.00 239.00
C 189.19 236.02 188.74 232.98 189.00 230.00 Z" />
    </g>
    <g fill="None" fill-opacity="0.0" stroke="#25323A" stroke-opacity="1.00" stroke-width="0.3">
        <path d="
M 140.00 206.00 
C 139.80 209.64 140.00 213.35 140.00 217.00
C 140.00 217.51 139.66 220.74 140.00 221.00
C 140.50 221.02 141.71 220.75 142.00 221.00
C 143.28 215.59 139.55 207.93 141.99 201.99 C 144.43 196.05 143.49 191.33 147.77 185.77 C 152.05 180.22 157.93 185.83 159.00 191.00
C 159.25 188.15 159.30 186.43 159.00 184.00
C 158.78 184.95 159.39 186.74 158.00 187.00
C 147.89 171.50 140.49 196.93 140.00 206.00 Z" />
    </g>
    <g fill="None" fill-opacity="0.0" stroke="#4AB3D9" stroke-opacity="1.00" stroke-width="0.3">
        <path
            d="
M 142.00 221.00 
C 142.13 222.03 143.17 222.59 144.00 223.00
C 144.15 222.03 143.81 220.96 144.00 220.00
C 144.15 218.07 143.60 214.24 144.00 212.00
C 142.66 204.76 153.41 189.99 158.00 202.00
C 160.04 199.30 158.69 194.53 159.00 191.00
C 157.93 185.83 152.05 180.22 147.77 185.77 C 143.49 191.33 144.43 196.05 141.99 201.99 C 139.55 207.93 143.28 215.59 142.00 221.00 Z" />
    </g>
    <g fill="None" fill-opacity="0.0" stroke="#807B1B" stroke-opacity="1.00" stroke-width="0.3">
        <path d="
M 133.00 191.00 
C 133.16 189.88 133.85 187.74 134.00 186.00
C 133.74 187.34 133.08 189.03 133.00 191.00 Z" />
    </g>
    <g fill="None" fill-opacity="0.0" stroke="#726E17" stroke-opacity="1.00" stroke-width="0.3">
        <path d="
M 225.00 196.00 
C 225.43 193.36 225.19 190.59 225.00 188.00
C 224.89 190.66 225.14 193.34 225.00 196.00 Z" />
    </g>
    <g fill="None" fill-opacity="0.0" stroke="#7D7C7A" stroke-opacity="1.00" stroke-width="0.3">
        <path d="
M 136.00 200.00 
C 136.00 196.68 135.87 193.32 136.00 190.00
C 135.54 193.24 135.69 196.75 136.00 200.00 Z" />
    </g>
    <g fill="None" fill-opacity="0.0" stroke="#49B3DA" stroke-opacity="1.00" stroke-width="0.3">
        <path d="
M 198.00 208.00 
C 194.53 214.03 191.94 220.12 191.00 227.00
C 190.87 227.98 191.49 229.75 190.00 230.00
C 189.31 234.78 189.79 239.98 196.00 238.00
C 188.70 226.65 209.56 199.17 215.00 219.00
C 217.68 213.99 220.91 199.91 214.67 196.33 C 208.43 192.75 200.41 203.81 198.00 208.00 Z" />
    </g>
    <g fill="None" fill-opacity="0.0" stroke="#7F7F7F" stroke-opacity="1.00" stroke-width="0.3">
        <path d="
M 140.00 217.00 
C 140.00 213.35 139.80 209.64 140.00 206.00
C 139.41 209.65 139.50 213.31 140.00 217.00 Z" />
    </g>
    <g fill="None" fill-opacity="0.0" stroke="#2E404B" stroke-opacity="1.00" stroke-width="0.3">
        <path d="
M 190.00 227.00 
C 190.49 226.92 191.00 227.00 191.00 227.00
C 191.94 220.12 194.53 214.03 198.00 208.00
C 198.00 208.00 197.28 207.75 197.00 208.00
C 191.93 212.53 191.53 220.86 190.00 227.00 Z" />
    </g>
    <g fill="None" fill-opacity="0.0" stroke="#2A5568" stroke-opacity="1.00" stroke-width="0.3">
        <path d="
M 144.00 220.00 
C 144.50 217.47 143.82 214.57 144.00 212.00
C 143.60 214.24 144.15 218.07 144.00 220.00 Z" />
    </g>
    <g fill="None" fill-opacity="0.0" stroke="#2E2816" stroke-opacity="1.00" stroke-width="0.3">
        <path d="
M 123.00 220.00 
C 122.57 225.19 118.22 226.12 116.98 231.98 C 115.73 237.83 112.95 240.93 118.75 247.25 C 124.55 253.57 134.55 259.30 142.77 261.23 C 150.99 263.15 147.20 267.85 152.00 271.00
C 152.02 270.66 153.02 270.08 153.00 270.00
C 151.09 266.38 153.46 266.19 156.00 265.00
C 143.98 258.21 137.63 256.33 125.25 248.75 C 112.86 241.17 126.53 226.24 124.00 218.00
C 123.95 218.70 123.01 219.85 123.00 220.00 Z" />
    </g>
    <g fill="None" fill-opacity="0.0" stroke="#7C781C" stroke-opacity="1.00" stroke-width="0.3">
        <path d="
M 149.00 229.00 
C 150.99 229.30 152.26 226.84 154.00 224.00
C 152.72 225.64 149.78 226.94 149.00 229.00 Z" />
    </g>
    <g fill="None" fill-opacity="0.0" stroke="#4F6972" stroke-opacity="1.00" stroke-width="0.3">
        <path d="
M 189.00 230.00 
C 189.00 230.00 189.51 230.08 190.00 230.00
C 191.49 229.75 190.87 227.98 191.00 227.00
C 191.00 227.00 190.49 226.92 190.00 227.00
C 188.54 227.24 189.08 229.02 189.00 230.00 Z" />
    </g>
    <g fill="None" fill-opacity="0.0" stroke="#322810" stroke-opacity="1.00" stroke-width="0.3">
        <path d="
M 180.00 247.00 
C 170.02 247.06 173.21 235.23 163.02 232.98 C 152.84 230.72 149.11 237.45 141.00 240.00
C 142.74 242.78 146.45 241.91 149.00 241.00
C 148.79 253.50 167.60 256.61 173.00 247.00
C 174.91 248.12 178.47 248.84 180.00 247.00
M 149.00 239.00 
C 151.96 231.60 169.14 232.51 170.30 241.70 C 171.46 250.88 152.89 242.68 149.00 239.00
M 169.00 248.00 
C 164.34 252.11 152.17 250.85 152.00 243.00
C 157.01 247.17 162.39 250.37 169.00 248.00 Z" />
    </g>
    <g fill="None" fill-opacity="0.0" stroke="#F2BB46" stroke-opacity="1.00" stroke-width="0.3">
        <path d="
M 149.00 239.00 
C 152.89 242.68 171.46 250.88 170.30 241.70 C 169.14 232.51 151.96 231.60 149.00 239.00 Z" />
    </g>
    <g fill="None" fill-opacity="0.0" stroke="#595412" stroke-opacity="1.00" stroke-width="0.3">
        <path d="
M 204.00 241.00 
C 204.27 242.47 206.00 241.89 207.00 242.00
C 206.85 241.05 205.86 240.30 205.00 240.00
C 205.08 240.26 204.34 240.99 204.00 241.00 Z" />
    </g>
    <g fill="None" fill-opacity="0.0" stroke="#D59C39" stroke-opacity="1.00" stroke-width="0.3">
        <path d="
M 169.00 248.00 
C 162.39 250.37 157.01 247.17 152.00 243.00
C 152.17 250.85 164.34 252.11 169.00 248.00 Z" />
    </g>
    <g fill="None" fill-opacity="0.0" stroke="#7D7817" stroke-opacity="1.00" stroke-width="0.3">
        <path d="
M 153.00 277.00 
C 154.39 275.22 154.41 272.81 153.00 271.00
C 153.00 273.00 153.00 275.00 153.00 277.00 Z" />
    </g>
    <g fill="None" fill-opacity="0.0" stroke="#746E19" stroke-opacity="1.00" stroke-width="0.3">
        <path d="
M 145.00 286.00 
C 147.17 283.23 151.32 281.43 153.00 278.00
C 150.10 280.02 147.00 282.99 145.00 286.00 Z" />
    </g>
    <g fill="None" fill-opacity="0.0" stroke="#787778" stroke-opacity="1.00" stroke-width="0.3">
        <path d="
M 175.00 284.00 
C 174.00 282.25 172.14 281.49 171.00 280.00
C 172.00 281.56 174.05 282.59 175.00 284.00 Z" />
    </g>
    <g fill="None" fill-opacity="0.0" stroke="#717272" stroke-opacity="1.00" stroke-width="0.3">
        <path d="
M 205.00 296.00 
C 203.75 294.25 200.37 289.38 198.00 289.00
C 198.93 289.26 204.13 294.96 205.00 296.00 Z" />
    </g>
    <g fill="None" fill-opacity="0.0" stroke="#E8E20F" stroke-opacity="1.00" stroke-width="0.3">
        <path d="
M 207.00 305.00 
C 205.71 299.86 202.66 295.02 198.00 292.00
C 198.78 297.05 195.84 301.14 196.00 306.00
C 199.90 306.49 203.06 304.28 207.00 305.00 Z" />
    </g>
    <g fill="None" fill-opacity="0.0" stroke="#908413" stroke-opacity="1.00" stroke-width="0.3">
        <path d="
M 145.00 297.00 
C 146.03 297.45 146.57 297.43 148.00 298.00
C 148.00 296.33 148.00 294.67 148.00 293.00
C 145.67 293.23 146.53 296.26 145.00 297.00 Z" />
    </g>
    <g fill="None" fill-opacity="0.0" stroke="#7A7318" stroke-opacity="1.00" stroke-width="0.3">
        <path d="
M 159.00 302.00 
C 159.50 302.02 160.59 301.81 161.00 302.00
C 161.18 300.35 160.83 298.49 159.00 298.00
C 159.34 299.21 158.56 300.83 159.00 302.00 Z" />
    </g>
    <g fill="#000000" fill-opacity="0.00" stroke="None">
        <path
            d="
M 0.00 384.00 
L 384.00 384.00
L 384.00 0.00
L 0.00 0.00
L 0.00 384.00
M 196.00 72.00 
C 243.46 76.59 289.02 104.77 303.93 154.07 C 318.83 203.38 301.55 257.65 258.75 288.75 C 215.96 319.86 157.84 317.48 115.75 286.25 C 73.66 255.01 60.54 193.23 79.92 147.92 C 99.31 102.62 145.71 67.13 196.00 72.00 Z" />
    </g>
    <g fill="#030201" fill-opacity="1.00" stroke="None">
        <path d="
M 196.00 72.00 
C 145.71 67.13 99.31 102.62 79.92 147.92 C 60.54 193.23 73.66 255.01 115.75 286.25 C 157.84 317.48 215.96 319.86 258.75 288.75 C 301.55 257.65 318.83 203.38 303.93 154.07 C 289.02 104.77 243.46 76.59 196.00 72.00
M 220.00 82.00 
C 220.41 82.19 221.50 81.98 222.00 82.00
C 241.75 82.81 257.43 98.76 272.25 111.75 C 287.07 124.74 295.45 143.66 300.98 163.02 C 306.50 182.39 304.31 213.65 296.22 232.22 C 288.13 250.80 278.71 265.75 262.77 278.77 C 246.83 291.79 228.51 301.60 208.00 304.00
C 208.92 300.65 205.92 298.79 205.00 296.00
C 204.13 294.96 198.93 289.26 198.00 289.00
C 194.54 288.44 196.24 302.48 193.00 306.00
C 188.33 306.00 183.67 306.00 179.00 306.00
C 177.48 298.70 178.73 290.68 175.00 284.00
C 174.05 282.59 172.00 281.56 171.00 280.00
C 163.36 268.13 183.75 269.29 190.01 271.99 C 196.26 274.69 216.53 274.73 216.97 263.97 C 217.42 253.22 226.60 249.89 235.69 245.69 C 244.79 241.50 250.36 237.12 257.75 230.75 C 265.14 224.39 268.44 217.32 272.77 208.77 C 277.10 200.22 278.37 187.04 278.00 177.00 C 277.63 166.96 273.26 157.19 269.70 148.31 C 266.13 139.42 259.65 134.43 253.75 127.25 C 247.86 120.07 235.16 118.23 235.00 110.00
C 231.59 115.06 227.47 110.06 223.00 110.00
C 223.49 101.78 222.48 93.98 222.00 86.00
C 221.86 86.69 221.10 87.78 221.00 89.00
C 220.46 95.29 221.40 101.70 221.00 108.00
C 217.34 106.33 207.78 108.34 206.08 103.92 C 204.39 99.49 206.42 92.14 203.00 88.00
C 202.73 87.75 201.17 88.24 201.00 88.00
C 202.73 93.46 204.57 98.93 204.00 105.00
C 177.88 101.58 150.49 106.56 130.00 123.00
C 127.51 125.30 124.17 128.51 122.00 131.00
C 112.38 143.93 109.09 159.80 110.00 176.00 C 110.91 192.20 120.22 204.66 123.00 220.00
C 123.01 219.85 123.95 218.70 124.00 218.00
C 119.85 204.48 114.29 189.46 114.00 175.00
C 113.53 171.07 113.44 166.89 114.00 163.00
C 114.39 152.71 117.85 142.10 124.25 134.25 C 130.64 126.40 136.84 121.10 145.75 116.75 C 154.65 112.39 166.06 108.76 176.00 108.00 C 185.94 107.25 203.97 102.91 206.00 115.00
C 207.81 103.76 223.25 113.39 231.23 116.77 C 239.21 120.16 247.42 126.40 253.75 133.25 C 260.08 140.10 265.59 148.10 268.92 157.08 C 272.25 166.05 275.54 180.98 274.00 191.00 C 272.46 201.02 268.64 211.13 263.23 219.23 C 257.82 227.33 251.17 233.07 243.30 238.30 C 235.44 243.54 225.95 249.06 217.00 252.00
C 218.28 278.60 184.98 268.58 169.00 267.00
C 174.44 268.45 167.06 279.72 162.00 278.00
C 165.59 281.11 171.74 280.34 173.77 286.23 C 175.80 292.12 176.57 298.46 176.00 305.00
C 170.84 304.99 165.09 304.60 161.00 302.00
C 160.59 301.81 159.50 302.02 159.00 302.00
C 154.76 301.83 151.48 299.39 148.00 298.00
C 146.57 297.43 146.03 297.45 145.00 297.00
C 143.84 296.50 142.30 296.27 141.00 296.00
C 141.60 292.44 143.37 289.23 145.00 286.00
C 147.00 282.99 150.10 280.02 153.00 278.00
C 153.20 277.60 153.00 277.00 153.00 277.00
C 153.00 275.00 153.00 273.00 153.00 271.00
C 153.00 270.50 153.00 270.00 153.00 270.00
C 153.02 270.08 152.02 270.66 152.00 271.00
C 151.47 280.93 140.89 284.34 139.00 294.00
C 97.26 275.87 72.44 229.19 76.00 184.00
C 76.10 182.36 76.79 181.04 77.00 180.00
C 78.67 158.89 87.98 137.69 101.25 121.25 C 114.53 104.82 129.66 93.51 149.07 86.07 C 168.49 78.64 199.89 72.38 220.00 82.00
M 207.00 305.00 
C 203.06 304.28 199.90 306.49 196.00 306.00
C 195.84 301.14 198.78 297.05 198.00 292.00
C 202.66 295.02 205.71 299.86 207.00 305.00 Z" />
    </g>
    <g fill="#FBFBFB" fill-opacity="1.00" stroke="None">
        <path
            d="
M 77.00 180.00 
C 76.88 181.54 76.16 183.06 76.00 184.00
C 72.44 229.19 97.26 275.87 139.00 294.00
C 140.89 284.34 151.47 280.93 152.00 271.00
C 147.20 267.85 150.99 263.15 142.77 261.23 C 134.55 259.30 124.55 253.57 118.75 247.25 C 112.95 240.93 115.73 237.83 116.98 231.98 C 118.22 226.12 122.57 225.19 123.00 220.00
C 120.22 204.66 110.91 192.20 110.00 176.00 C 109.09 159.80 112.38 143.93 122.00 131.00
C 124.25 127.97 127.10 125.29 130.00 123.00
C 150.49 106.56 177.88 101.58 204.00 105.00
C 204.57 98.93 202.73 93.46 201.00 88.00
C 200.27 85.68 198.20 81.81 200.00 80.00
C 201.42 82.55 202.45 85.16 203.00 88.00
C 206.42 92.14 204.39 99.49 206.08 103.92 C 207.78 108.34 217.34 106.33 221.00 108.00
C 221.40 101.70 220.46 95.29 221.00 89.00
C 220.85 87.49 218.92 84.18 220.00 82.00
C 199.89 72.38 168.49 78.64 149.07 86.07 C 129.66 93.51 114.53 104.82 101.25 121.25 C 87.98 137.69 78.67 158.89 77.00 180.00 Z" />
    </g>
    <g fill="#464646" fill-opacity="1.00" stroke="None">
        <path d="
M 201.00 88.00 
C 201.17 88.24 202.73 87.75 203.00 88.00
C 202.45 85.16 201.42 82.55 200.00 80.00
C 198.20 81.81 200.27 85.68 201.00 88.00 Z" />
    </g>
    <g fill="#515151" fill-opacity="1.00" stroke="None">
        <path d="
M 221.00 89.00 
C 221.10 87.78 221.86 86.69 222.00 86.00
C 222.00 85.49 222.34 82.25 222.00 82.00
C 221.50 81.98 220.41 82.19 220.00 82.00
C 218.92 84.18 220.85 87.49 221.00 89.00 Z" />
    </g>
    <g fill="#FBFBFB" fill-opacity="1.00" stroke="None">
        <path d="
M 222.00 86.00 
C 222.48 93.98 223.49 101.78 223.00 110.00
C 227.47 110.06 231.59 115.06 235.00 110.00
C 235.16 118.23 247.86 120.07 253.75 127.25 C 259.65 134.43 266.13 139.42 269.70 148.31 C 273.26 157.19 277.63 166.96 278.00 177.00 C 278.37 187.04 277.10 200.22 272.77 208.77 C 268.44 217.32 265.14 224.39 257.75 230.75 C 250.36 237.12 244.79 241.50 235.69 245.69 C 226.60 249.89 217.42 253.22 216.97 263.97 C 216.53 274.73 196.26 274.69 190.01 271.99 C 183.75 269.29 163.36 268.13 171.00 280.00
C 172.14 281.49 174.00 282.25 175.00 284.00
C 178.73 290.68 177.48 298.70 179.00 306.00
C 183.67 306.00 188.33 306.00 193.00 306.00
C 196.24 302.48 194.54 288.44 198.00 289.00
C 200.37 289.38 203.75 294.25 205.00 296.00
C 205.92 298.79 208.92 300.65 208.00 304.00
C 228.51 301.60 246.83 291.79 262.77 278.77 C 278.71 265.75 288.13 250.80 296.22 232.22 C 304.31 213.65 306.50 182.39 300.98 163.02 C 295.45 143.66 287.07 124.74 272.25 111.75 C 257.43 98.76 241.75 82.81 222.00 82.00
C 222.34 82.25 222.00 85.49 222.00 86.00
M 240.00 101.00 
C 237.72 103.34 238.75 108.58 235.00 109.00
C 237.28 106.66 236.25 101.42 240.00 101.00 Z" />
    </g>
    <g fill="#434343" fill-opacity="1.00" stroke="None">
        <path d="
M 240.00 101.00 
C 236.25 101.42 237.28 106.66 235.00 109.00
C 238.75 108.58 237.72 103.34 240.00 101.00 Z" />
    </g>
    <g fill="#F7EE04" fill-opacity="1.00" stroke="None">
        <path d="
M 114.00 163.00 
C 113.85 166.98 113.92 171.02 114.00 175.00
C 114.29 189.46 119.85 204.48 124.00 218.00
C 126.53 226.24 112.86 241.17 125.25 248.75 C 137.63 256.33 143.98 258.21 156.00 265.00
C 153.46 266.19 151.09 266.38 153.00 270.00
C 153.00 270.00 153.00 270.50 153.00 271.00
C 154.41 272.81 154.39 275.22 153.00 277.00
C 153.00 277.00 153.20 277.60 153.00 278.00
C 151.32 281.43 147.17 283.23 145.00 286.00
C 143.37 289.23 141.60 292.44 141.00 296.00
C 142.30 296.27 143.84 296.50 145.00 297.00
C 146.53 296.26 145.67 293.23 148.00 293.00
C 148.00 294.67 148.00 296.33 148.00 298.00
C 151.48 299.39 154.76 301.83 159.00 302.00
C 158.56 300.83 159.34 299.21 159.00 298.00
C 160.83 298.49 161.18 300.35 161.00 302.00
C 165.09 304.60 170.84 304.99 176.00 305.00
C 176.57 298.46 175.80 292.12 173.77 286.23 C 171.74 280.34 165.59 281.11 162.00 278.00
C 167.06 279.72 174.44 268.45 169.00 267.00
C 184.98 268.58 218.28 278.60 217.00 252.00
C 225.95 249.06 235.44 243.54 243.30 238.30 C 251.17 233.07 257.82 227.33 263.23 219.23 C 268.64 211.13 272.46 201.02 274.00 191.00 C 275.54 180.98 272.25 166.05 268.92 157.08 C 265.59 148.10 260.08 140.10 253.75 133.25 C 247.42 126.40 239.21 120.16 231.23 116.77 C 223.25 113.39 207.81 103.76 206.00 115.00
C 203.97 102.91 185.94 107.25 176.00 108.00 C 166.06 108.76 154.65 112.39 145.75 116.75 C 136.84 121.10 130.64 126.40 124.25 134.25 C 117.85 142.10 114.39 152.71 114.00 163.00
M 145.00 127.00 
C 137.38 126.92 135.19 135.81 131.00 140.00
C 132.11 134.08 137.80 123.24 145.00 127.00
M 147.00 138.00 
C 147.76 146.34 146.72 154.37 150.00 162.00
C 161.55 166.29 160.82 180.00 161.00 191.00 C 161.18 202.00 159.76 214.52 154.00 224.00
C 152.26 226.84 150.99 229.30 149.00 229.00
C 143.93 228.24 140.39 219.71 134.00 222.00
C 137.58 213.63 131.92 201.25 133.00 191.00
C 133.08 189.03 133.74 187.34 134.00 186.00
C 134.57 179.44 137.23 174.15 139.00 168.00
C 137.11 168.06 135.71 166.58 134.00 166.00
C 132.41 164.94 130.84 163.72 130.00 162.00
C 129.80 161.60 130.00 161.00 130.00 161.00
C 127.54 158.74 126.06 156.24 125.00 153.00
C 124.69 152.05 123.26 150.58 124.00 149.00
C 125.01 149.55 125.44 150.98 126.00 152.00
C 129.31 154.93 130.16 161.00 134.00 164.00
C 136.45 165.59 144.33 168.48 142.21 163.77 C 140.10 159.06 135.60 158.62 136.00 153.00
C 134.12 152.07 134.39 149.75 134.00 148.00
C 133.74 146.84 132.17 144.82 133.00 143.00
C 134.11 143.84 135.04 145.46 135.00 147.00
C 135.76 148.94 136.12 151.02 137.00 153.00
C 139.04 157.61 143.28 165.06 149.00 163.00
C 145.88 155.29 143.57 146.45 146.00 138.00
C 146.25 136.72 147.63 135.56 147.00 134.00
C 148.34 134.47 148.57 137.58 147.00 138.00
M 243.00 151.00 
C 251.73 151.03 257.21 167.10 255.00 174.00
C 254.89 174.87 253.80 175.84 253.00 176.00
C 253.00 173.33 253.00 170.67 253.00 168.00
C 252.46 160.08 248.46 156.77 243.00 152.00
C 240.63 151.20 240.96 149.75 243.00 151.00
M 229.00 162.00 
C 228.14 164.17 227.78 166.41 226.00 168.00
C 223.93 171.64 221.11 175.42 219.00 179.00
C 221.23 179.52 222.73 177.46 225.00 178.00
C 230.14 172.25 240.13 168.51 244.00 161.00
C 241.00 169.44 233.06 175.54 225.00 179.00
C 218.21 180.51 228.45 182.95 232.00 182.00 C 235.55 181.05 240.86 180.46 244.00 178.00
C 244.52 177.17 244.89 176.17 246.00 176.00
C 246.94 175.07 247.43 173.21 249.00 173.00
C 249.27 174.28 248.23 175.72 247.00 176.00
C 246.26 177.76 244.46 179.03 243.00 180.00
C 238.09 184.49 230.29 183.96 224.00 184.00
C 224.93 185.14 225.08 186.55 225.00 188.00
C 225.19 190.59 225.43 193.36 225.00 196.00
C 224.56 204.09 218.76 213.80 216.69 220.69 C 214.63 227.59 203.52 235.07 205.00 240.00
C 205.86 240.30 206.85 241.05 207.00 242.00
C 206.00 241.89 204.27 242.47 204.00 241.00
C 198.03 241.16 190.96 238.22 185.00 241.00
C 182.76 224.48 188.03 210.12 193.92 194.92 C 199.82 179.73 216.08 179.77 225.00 168.00
C 225.66 165.90 227.11 164.01 228.00 162.00
C 228.99 159.76 230.02 157.54 230.00 155.00
C 232.10 156.58 230.31 160.55 229.00 162.00
M 180.00 247.00 
C 178.47 248.84 174.91 248.12 173.00 247.00
C 167.60 256.61 148.79 253.50 149.00 241.00
C 146.45 241.91 142.74 242.78 141.00 240.00
C 149.11 237.45 152.84 230.72 163.02 232.98 C 173.21 235.23 170.02 247.06 180.00 247.00 Z" />
    </g>
    <g fill="#787773" fill-opacity="1.00" stroke="None">
        <path d="
M 122.00 131.00 
C 124.17 128.51 127.51 125.30 130.00 123.00
C 127.10 125.29 124.25 127.97 122.00 131.00 Z" />
    </g>
    <g fill="#4C430E" fill-opacity="1.00" stroke="None">
        <path d="
M 145.00 127.00 
C 137.80 123.24 132.11 134.08 131.00 140.00
C 135.19 135.81 137.38 126.92 145.00 127.00 Z" />
    </g>
    <g fill="#656116" fill-opacity="1.00" stroke="None">
        <path d="
M 146.00 138.00 
C 146.04 137.87 147.00 138.00 147.00 138.00
C 148.57 137.58 148.34 134.47 147.00 134.00
C 147.63 135.56 146.25 136.72 146.00 138.00 Z" />
    </g>
    <g fill="#0C0C07" fill-opacity="1.00" stroke="None">
        <path d="
M 137.00 153.00 
C 136.88 152.78 136.00 153.00 136.00 153.00
C 135.60 158.62 140.10 159.06 142.21 163.77 C 144.33 168.48 136.45 165.59 134.00 164.00
C 132.70 163.16 131.09 162.00 130.00 161.00
C 130.00 161.00 129.80 161.60 130.00 162.00
C 131.58 163.10 132.66 164.95 134.00 166.00
C 135.71 166.58 137.11 168.06 139.00 168.00
C 137.23 174.15 134.57 179.44 134.00 186.00
C 133.85 187.74 133.16 189.88 133.00 191.00
C 131.92 201.25 137.58 213.63 134.00 222.00
C 140.39 219.71 143.93 228.24 149.00 229.00
C 149.78 226.94 152.72 225.64 154.00 224.00
C 159.76 214.52 161.18 202.00 161.00 191.00 C 160.82 180.00 161.55 166.29 150.00 162.00
C 146.72 154.37 147.76 146.34 147.00 138.00
C 147.00 138.00 146.04 137.87 146.00 138.00
C 143.57 146.45 145.88 155.29 149.00 163.00
C 143.28 165.06 139.04 157.61 137.00 153.00
M 159.00 184.00 
C 159.30 186.43 159.25 188.15 159.00 191.00
C 158.69 194.53 160.04 199.30 158.00 202.00
C 153.41 189.99 142.66 204.76 144.00 212.00
C 143.82 214.57 144.50 217.47 144.00 220.00
C 143.81 220.96 144.15 222.03 144.00 223.00
C 143.17 222.59 142.13 222.03 142.00 221.00
C 141.71 220.75 140.50 221.02 140.00 221.00
C 134.99 220.84 136.00 204.10 136.00 200.00
C 135.69 196.75 135.54 193.24 136.00 190.00
C 136.35 180.83 137.31 172.10 146.08 166.08 C 154.86 160.06 158.15 177.19 159.00 184.00 Z" />
    </g>
    <g fill="#7E7715" fill-opacity="1.00" stroke="None">
        <path d="
M 134.00 148.00 
C 134.06 147.65 134.99 147.18 135.00 147.00
C 135.04 145.46 134.11 143.84 133.00 143.00
C 132.17 144.82 133.74 146.84 134.00 148.00 Z" />
    </g>
    <g fill="#48410F" fill-opacity="1.00" stroke="None">
        <path d="
M 134.00 148.00 
C 134.39 149.75 134.12 152.07 136.00 153.00
C 136.00 153.00 136.88 152.78 137.00 153.00
C 136.12 151.02 135.76 148.94 135.00 147.00
C 134.99 147.18 134.06 147.65 134.00 148.00 Z" />
    </g>
    <g fill="#9A9019" fill-opacity="1.00" stroke="None">
        <path d="
M 125.00 153.00 
C 124.99 152.67 126.01 152.13 126.00 152.00
C 125.44 150.98 125.01 149.55 124.00 149.00
C 123.26 150.58 124.69 152.05 125.00 153.00 Z" />
    </g>
    <g fill="#898418" fill-opacity="1.00" stroke="None">
        <path d="
M 243.00 152.00 
C 242.75 151.78 243.00 151.00 243.00 151.00
C 240.96 149.75 240.63 151.20 243.00 152.00 Z" />
    </g>
    <g fill="#2E2B0C" fill-opacity="1.00" stroke="None">
        <path d="
M 243.00 152.00 
C 248.46 156.77 252.46 160.08 253.00 168.00
C 253.20 168.96 255.10 173.22 255.00 174.00
C 257.21 167.10 251.73 151.03 243.00 151.00
C 243.00 151.00 242.75 151.78 243.00 152.00 Z" />
    </g>
    <g fill="#49430F" fill-opacity="1.00" stroke="None">
        <path d="
M 125.00 153.00 
C 126.06 156.24 127.54 158.74 130.00 161.00
C 131.09 162.00 132.70 163.16 134.00 164.00
C 130.16 161.00 129.31 154.93 126.00 152.00
C 126.01 152.13 124.99 152.67 125.00 153.00 Z" />
    </g>
    <g fill="#6D6718" fill-opacity="1.00" stroke="None">
        <path d="
M 228.00 162.00 
C 228.12 161.78 229.00 162.00 229.00 162.00
C 230.31 160.55 232.10 156.58 230.00 155.00
C 230.02 157.54 228.99 159.76 228.00 162.00 Z" />
    </g>
    <g fill="#524E12" fill-opacity="1.00" stroke="None">
        <path d="
M 225.00 178.00 
C 224.75 178.28 225.00 179.00 225.00 179.00
C 233.06 175.54 241.00 169.44 244.00 161.00
C 240.13 168.51 230.14 172.25 225.00 178.00 Z" />
    </g>
    <g fill="#7D791B" fill-opacity="1.00" stroke="None">
        <path d="
M 134.00 166.00 
C 132.66 164.95 131.58 163.10 130.00 162.00
C 130.84 163.72 132.41 164.94 134.00 166.00 Z" />
    </g>
    <g fill="#3A380D" fill-opacity="1.00" stroke="None">
        <path d="
M 225.00 168.00 
C 225.22 167.75 226.00 168.00 226.00 168.00
C 227.78 166.41 228.14 164.17 229.00 162.00
C 229.00 162.00 228.12 161.78 228.00 162.00
C 227.11 164.01 225.66 165.90 225.00 168.00 Z" />
    </g>
    <g fill="#90871D" fill-opacity="1.00" stroke="None">
        <path d="
M 114.00 175.00 
C 113.92 171.02 113.85 166.98 114.00 163.00
C 113.44 166.89 113.53 171.07 114.00 175.00 Z" />
    </g>
    <g fill="#F4F3F3" fill-opacity="1.00" stroke="None">
        <path d="
M 136.00 190.00 
C 135.87 193.32 136.00 196.68 136.00 200.00
C 136.00 204.10 134.99 220.84 140.00 221.00
C 139.66 220.74 140.00 217.51 140.00 217.00
C 139.50 213.31 139.41 209.65 140.00 206.00
C 140.49 196.93 147.89 171.50 158.00 187.00
C 159.39 186.74 158.78 184.95 159.00 184.00
C 158.15 177.19 154.86 160.06 146.08 166.08 C 137.31 172.10 136.35 180.83 136.00 190.00 Z" />
    </g>
    <g fill="#0D0E0A" fill-opacity="1.00" stroke="None">
        <path d="
M 204.00 241.00 
C 204.34 240.99 205.08 240.26 205.00 240.00
C 203.52 235.07 214.63 227.59 216.69 220.69 C 218.76 213.80 224.56 204.09 225.00 196.00
C 225.14 193.34 224.89 190.66 225.00 188.00
C 225.08 186.55 224.93 185.14 224.00 184.00
C 230.29 183.96 238.09 184.49 243.00 180.00
C 243.53 179.52 243.65 178.55 244.00 178.00
C 240.86 180.46 235.55 181.05 232.00 182.00 C 228.45 182.95 218.21 180.51 225.00 179.00
C 225.00 179.00 224.75 178.28 225.00 178.00
C 222.73 177.46 221.23 179.52 219.00 179.00
C 221.11 175.42 223.93 171.64 226.00 168.00
C 226.00 168.00 225.22 167.75 225.00 168.00
C 216.08 179.77 199.82 179.73 193.92 194.92 C 188.03 210.12 182.76 224.48 185.00 241.00
C 190.96 238.22 198.03 241.16 204.00 241.00
M 197.00 208.00 
C 197.28 207.75 198.00 208.00 198.00 208.00
C 200.41 203.81 208.43 192.75 214.67 196.33 C 220.91 199.91 217.68 213.99 215.00 219.00
C 209.56 199.17 188.70 226.65 196.00 238.00
C 189.79 239.98 189.31 234.78 190.00 230.00
C 189.51 230.08 189.00 230.00 189.00 230.00
C 188.74 232.98 189.19 236.02 189.00 239.00
C 182.66 233.99 187.45 221.45 188.93 213.93 C 190.40 206.41 193.85 197.67 198.25 191.25 C 202.66 184.84 208.42 177.78 217.22 180.78 C 226.03 183.78 222.42 197.65 221.00 205.00
C 220.39 199.43 215.20 191.37 208.93 194.93 C 202.65 198.49 199.80 202.07 197.00 208.00 Z" />
    </g>
    <g fill="#908B1F" fill-opacity="1.00" stroke="None">
        <path d="
M 255.00 174.00 
C 255.10 173.22 253.20 168.96 253.00 168.00
C 253.00 170.67 253.00 173.33 253.00 176.00
C 253.80 175.84 254.89 174.87 255.00 174.00 Z" />
    </g>
    <g fill="#90881B" fill-opacity="1.00" stroke="None">
        <path d="
M 246.00 176.00 
C 246.49 175.93 247.00 176.00 247.00 176.00
C 248.23 175.72 249.27 174.28 249.00 173.00
C 247.43 173.21 246.94 175.07 246.00 176.00 Z" />
    </g>
    <g fill="#666218" fill-opacity="1.00" stroke="None">
        <path d="
M 244.00 178.00 
C 243.65 178.55 243.53 179.52 243.00 180.00
C 244.46 179.03 246.26 177.76 247.00 176.00
C 247.00 176.00 246.49 175.93 246.00 176.00
C 244.89 176.17 244.52 177.17 244.00 178.00 Z" />
    </g>
    <g fill="#767676" fill-opacity="1.00" stroke="None">
        <path d="
M 76.00 184.00 
C 76.16 183.06 76.88 181.54 77.00 180.00
C 76.79 181.04 76.10 182.36 76.00 184.00 Z" />
    </g>
    <g fill="#F0F0F0" fill-opacity="1.00" stroke="None">
        <path d="
M 189.00 230.00 
C 189.08 229.02 188.54 227.24 190.00 227.00
C 191.53 220.86 191.93 212.53 197.00 208.00
C 199.80 202.07 202.65 198.49 208.93 194.93 C 215.20 191.37 220.39 199.43 221.00 205.00
C 222.42 197.65 226.03 183.78 217.22 180.78 C 208.42 177.78 202.66 184.84 198.25 191.25 C 193.85 197.67 190.40 206.41 188.93 213.93 C 187.45 221.45 182.66 233.99 189.00 239.00
C 189.19 236.02 188.74 232.98 189.00 230.00 Z" />
    </g>
    <g fill="#25323A" fill-opacity="1.00" stroke="None">
        <path d="
M 140.00 206.00 
C 139.80 209.64 140.00 213.35 140.00 217.00
C 140.00 217.51 139.66 220.74 140.00 221.00
C 140.50 221.02 141.71 220.75 142.00 221.00
C 143.28 215.59 139.55 207.93 141.99 201.99 C 144.43 196.05 143.49 191.33 147.77 185.77 C 152.05 180.22 157.93 185.83 159.00 191.00
C 159.25 188.15 159.30 186.43 159.00 184.00
C 158.78 184.95 159.39 186.74 158.00 187.00
C 147.89 171.50 140.49 196.93 140.00 206.00 Z" />
    </g>
    <g fill="#4AB3D9" fill-opacity="1.00" stroke="None">
        <path
            d="
M 142.00 221.00 
C 142.13 222.03 143.17 222.59 144.00 223.00
C 144.15 222.03 143.81 220.96 144.00 220.00
C 144.15 218.07 143.60 214.24 144.00 212.00
C 142.66 204.76 153.41 189.99 158.00 202.00
C 160.04 199.30 158.69 194.53 159.00 191.00
C 157.93 185.83 152.05 180.22 147.77 185.77 C 143.49 191.33 144.43 196.05 141.99 201.99 C 139.55 207.93 143.28 215.59 142.00 221.00 Z" />
    </g>
    <g fill="#807B1B" fill-opacity="1.00" stroke="None">
        <path d="
M 133.00 191.00 
C 133.16 189.88 133.85 187.74 134.00 186.00
C 133.74 187.34 133.08 189.03 133.00 191.00 Z" />
    </g>
    <g fill="#726E17" fill-opacity="1.00" stroke="None">
        <path d="
M 225.00 196.00 
C 225.43 193.36 225.19 190.59 225.00 188.00
C 224.89 190.66 225.14 193.34 225.00 196.00 Z" />
    </g>
    <g fill="#7D7C7A" fill-opacity="1.00" stroke="None">
        <path d="
M 136.00 200.00 
C 136.00 196.68 135.87 193.32 136.00 190.00
C 135.54 193.24 135.69 196.75 136.00 200.00 Z" />
    </g>
    <g fill="#49B3DA" fill-opacity="1.00" stroke="None">
        <path d="
M 198.00 208.00 
C 194.53 214.03 191.94 220.12 191.00 227.00
C 190.87 227.98 191.49 229.75 190.00 230.00
C 189.31 234.78 189.79 239.98 196.00 238.00
C 188.70 226.65 209.56 199.17 215.00 219.00
C 217.68 213.99 220.91 199.91 214.67 196.33 C 208.43 192.75 200.41 203.81 198.00 208.00 Z" />
    </g>
    <g fill="#7F7F7F" fill-opacity="1.00" stroke="None">
        <path d="
M 140.00 217.00 
C 140.00 213.35 139.80 209.64 140.00 206.00
C 139.41 209.65 139.50 213.31 140.00 217.00 Z" />
    </g>
    <g fill="#2E404B" fill-opacity="1.00" stroke="None">
        <path d="
M 190.00 227.00 
C 190.49 226.92 191.00 227.00 191.00 227.00
C 191.94 220.12 194.53 214.03 198.00 208.00
C 198.00 208.00 197.28 207.75 197.00 208.00
C 191.93 212.53 191.53 220.86 190.00 227.00 Z" />
    </g>
    <g fill="#2A5568" fill-opacity="1.00" stroke="None">
        <path d="
M 144.00 220.00 
C 144.50 217.47 143.82 214.57 144.00 212.00
C 143.60 214.24 144.15 218.07 144.00 220.00 Z" />
    </g>
    <g fill="#2E2816" fill-opacity="1.00" stroke="None">
        <path d="
M 123.00 220.00 
C 122.57 225.19 118.22 226.12 116.98 231.98 C 115.73 237.83 112.95 240.93 118.75 247.25 C 124.55 253.57 134.55 259.30 142.77 261.23 C 150.99 263.15 147.20 267.85 152.00 271.00
C 152.02 270.66 153.02 270.08 153.00 270.00
C 151.09 266.38 153.46 266.19 156.00 265.00
C 143.98 258.21 137.63 256.33 125.25 248.75 C 112.86 241.17 126.53 226.24 124.00 218.00
C 123.95 218.70 123.01 219.85 123.00 220.00 Z" />
    </g>
    <g fill="#7C781C" fill-opacity="1.00" stroke="None">
        <path d="
M 149.00 229.00 
C 150.99 229.30 152.26 226.84 154.00 224.00
C 152.72 225.64 149.78 226.94 149.00 229.00 Z" />
    </g>
    <g fill="#4F6972" fill-opacity="1.00" stroke="None">
        <path d="
M 189.00 230.00 
C 189.00 230.00 189.51 230.08 190.00 230.00
C 191.49 229.75 190.87 227.98 191.00 227.00
C 191.00 227.00 190.49 226.92 190.00 227.00
C 188.54 227.24 189.08 229.02 189.00 230.00 Z" />
    </g>
    <g fill="#322810" fill-opacity="1.00" stroke="None">
        <path d="
M 180.00 247.00 
C 170.02 247.06 173.21 235.23 163.02 232.98 C 152.84 230.72 149.11 237.45 141.00 240.00
C 142.74 242.78 146.45 241.91 149.00 241.00
C 148.79 253.50 167.60 256.61 173.00 247.00
C 174.91 248.12 178.47 248.84 180.00 247.00
M 149.00 239.00 
C 151.96 231.60 169.14 232.51 170.30 241.70 C 171.46 250.88 152.89 242.68 149.00 239.00
M 169.00 248.00 
C 164.34 252.11 152.17 250.85 152.00 243.00
C 157.01 247.17 162.39 250.37 169.00 248.00 Z" />
    </g>
    <g fill="#F2BB46" fill-opacity="1.00" stroke="None">
        <path d="
M 149.00 239.00 
C 152.89 242.68 171.46 250.88 170.30 241.70 C 169.14 232.51 151.96 231.60 149.00 239.00 Z" />
    </g>
    <g fill="#595412" fill-opacity="1.00" stroke="None">
        <path d="
M 204.00 241.00 
C 204.27 242.47 206.00 241.89 207.00 242.00
C 206.85 241.05 205.86 240.30 205.00 240.00
C 205.08 240.26 204.34 240.99 204.00 241.00 Z" />
    </g>
    <g fill="#D59C39" fill-opacity="1.00" stroke="None">
        <path d="
M 169.00 248.00 
C 162.39 250.37 157.01 247.17 152.00 243.00
C 152.17 250.85 164.34 252.11 169.00 248.00 Z" />
    </g>
    <g fill="#7D7817" fill-opacity="1.00" stroke="None">
        <path d="
M 153.00 277.00 
C 154.39 275.22 154.41 272.81 153.00 271.00
C 153.00 273.00 153.00 275.00 153.00 277.00 Z" />
    </g>
    <g fill="#746E19" fill-opacity="1.00" stroke="None">
        <path d="
M 145.00 286.00 
C 147.17 283.23 151.32 281.43 153.00 278.00
C 150.10 280.02 147.00 282.99 145.00 286.00 Z" />
    </g>
    <g fill="#787778" fill-opacity="1.00" stroke="None">
        <path d="
M 175.00 284.00 
C 174.00 282.25 172.14 281.49 171.00 280.00
C 172.00 281.56 174.05 282.59 175.00 284.00 Z" />
    </g>
    <g fill="#717272" fill-opacity="1.00" stroke="None">
        <path d="
M 205.00 296.00 
C 203.75 294.25 200.37 289.38 198.00 289.00
C 198.93 289.26 204.13 294.96 205.00 296.00 Z" />
    </g>
    <g fill="#E8E20F" fill-opacity="1.00" stroke="None">
        <path d="
M 207.00 305.00 
C 205.71 299.86 202.66 295.02 198.00 292.00
C 198.78 297.05 195.84 301.14 196.00 306.00
C 199.90 306.49 203.06 304.28 207.00 305.00 Z" />
    </g>
    <g fill="#908413" fill-opacity="1.00" stroke="None">
        <path d="
M 145.00 297.00 
C 146.03 297.45 146.57 297.43 148.00 298.00
C 148.00 296.33 148.00 294.67 148.00 293.00
C 145.67 293.23 146.53 296.26 145.00 297.00 Z" />
    </g>
    <g fill="#7A7318" fill-opacity="1.00" stroke="None">
        <path d="
M 159.00 302.00 
C 159.50 302.02 160.59 301.81 161.00 302.00
C 161.18 300.35 160.83 298.49 159.00 298.00
C 159.34 299.21 158.56 300.83 159.00 302.00 Z" />
    </g>
</svg>