<svg width="800" height="800" viewBox="0 0 800 800" fill="none" xmlns="http://www.w3.org/2000/svg">
<path d="M399.5 643C265.019 643 156 533.981 156 399.5C156 265.019 265.019 156 399.5 156C533.981 156 643 265.019 643 399.5C643 533.981 533.981 643 399.5 643Z" fill="white"/>
<path d="M399.5 643C265.019 643 156 533.981 156 399.5C156 265.019 265.019 156 399.5 156C533.981 156 643 265.019 643 399.5C643 533.981 533.981 643 399.5 643Z" stroke="black" stroke-width="9"/>
<g clip-path="url(#clip0_412_1975)">
<path d="M606.07 469.99C604.48 457.74 596.75 448.03 586 444.33L585.85 441.58C585.8 440.68 584.55 419.29 577.06 392.63C573.43 379.69 567.87 364.24 559.61 349.39C557.79 343.24 555.74 336.33 555.74 336.33C545.21 300.78 542.03 271.77 542.03 249.7C542.03 239.4 542.72 230.61 543.68 223.37C546.95 198.77 553.94 186.3 554.01 186.17L561.8 172.5L548.4 180.74C547.47 181.31 527.36 194.16 518.66 235.23C493.45 187.08 465.41 163.14 445.72 151.44C422.43 137.59 405.47 137.21 404.76 137.2L390.49 137L402.55 144.62C402.74 144.74 418.98 155.19 428.4 171.5C353.64 137.73 299.78 155.78 267.29 177.58C216.86 211.43 192.47 270.55 194.07 291.44L195.34 307.97L201.8 292.7C204.43 286.47 206.6 281.46 208.57 277.26C208.5 278.67 208.46 280.1 208.46 281.55C208.46 300.02 213.99 321.68 224.52 341.25C237.08 364.59 267.17 404.1 327.61 406.47L337.2 406.85L330.75 399.74C307.09 373.69 295.16 349.72 295.16 328.3C295.16 324.15 295.61 320.09 296.5 316.14C299.46 303.07 307.05 292.8 315.11 285.17C314.84 286.91 314.17 291.25 314.17 291.25L320.94 288.19C332.23 283.08 344.92 284.09 355.75 290.95C372.11 301.32 381.74 322.75 382.18 349.74C382.18 349.74 382.26 354.37 382.31 357.93C377.24 364.26 373.77 370.62 373.77 374.8C373.77 375.38 373.84 375.92 373.97 376.4L375.2 380.79C368.03 390.98 361.77 403.66 358.42 418.65C355.27 430.04 353.03 441.02 351.73 451.1C349.42 444.51 346.2 438.6 337.47 438.1L337.38 438.09H337.29C324.83 438.09 315.08 452.43 315.08 470.74C315.08 476.39 315.33 483.5 317.09 489.42C302.27 488.33 288.15 484.46 274.98 477.84C253.89 467.24 235.08 449.51 219.07 425.13L213.27 416.31L214.15 426.83C218.73 481.62 237.2 522.27 269.07 547.67C308.97 579.48 356.37 576.85 367.09 575.78C368.95 581.34 374.03 598.73 374.03 622.91C374.03 633.64 373.03 645.69 370.3 658.64L369.36 663.12L373.73 661.76C435.22 642.59 488.29 593.9 510.96 573.11C516.19 568.31 520.33 564.52 521.89 563.57C553 548 576.04 531.09 590.38 513.32C603.11 497.55 606.37 484.36 606.37 474.97C606.39 473.15 606.27 471.5 606.07 469.99Z" fill="black"/>
<path d="M350.81 458.27C350.88 463.72 349.69 481.31 351.92 486.83C344.02 488.92 325.98 490.26 320.37 489.45C318.62 484.24 318.22 477.64 318.22 470.73C318.22 454.43 326.76 441.21 337.3 441.21C346.36 441.72 347.79 449.13 350.81 458.27Z" fill="#F8AD00"/>
<path d="M581.83 441.8C581.83 441.8 529.94 422.72 465.72 474.9C498.94 410.19 478.66 286.14 410.08 396.48C412.17 386.34 437.81 311.2 377.88 375.31C375.79 367.85 412.17 323.42 426.19 347.28C427.09 321.63 394.28 338.63 386.23 349.67C385.34 294.8 348.48 271.33 319.31 284.52C320.63 276.02 339.11 264.39 339.11 264.39C339.11 264.39 239.22 304.94 327.78 402.45C229.08 398.57 197.47 288.84 218.94 253.35C210.89 262.3 207.01 270.05 198.1 291.14C195.37 255.73 274.09 98.2802 436.64 179.87C428.86 156.43 404.7 141.22 404.7 141.22C404.7 141.22 470 142.11 520.55 247.94C527.26 198.47 550.52 184.16 550.52 184.16C550.52 184.16 521.41 234.6 551.88 337.47C537.1 318.05 531.43 317.16 526.96 315.67C577.06 355.62 581.83 441.8 581.83 441.8ZM446.15 340.71C460.76 334.75 488.49 328.19 502.51 381.86C508.17 374.71 487.3 299.56 446.15 340.71Z" fill="#E31F2B"/>
<path d="M372.95 659.18C383.24 618.03 370.04 576.21 370.04 576.21L381.45 574.2C381.45 574.2 394.42 599.25 385.92 642.64C433.45 631.09 515.63 533.95 520.55 492.8C524.58 487.88 529.94 495.04 546.05 499.51C534.42 483.41 506.24 484.3 480.75 495.48C501.77 491.9 510.93 491.16 511.17 492.8C445.87 566.16 367.3 573.15 367.3 573.15C367.3 573.15 230.71 592.54 216.84 426.59C287.96 534.83 388.6 478.03 395.76 473.55C401.57 529.91 445.41 499.05 445.41 499.05C445.41 499.05 428.86 519.18 427.07 525.89C506.69 418.99 573.46 444.3 581.9 445.96C611.36 452.09 627.01 508 520.56 561.23C511.6 566.59 448.98 635.47 372.95 659.18ZM388.23 518.81C384.57 522.47 364.9 526.96 364.9 526.96C364.9 526.96 385.54 526.56 390.76 521.34C391.46 520.64 391.46 519.51 390.76 518.81C390.06 518.11 388.93 518.11 388.23 518.81Z" fill="#FFD200"/>
<path d="M375.18 480.56C373.95 476.41 374.22 472.66 374.22 467.55C374.22 451.68 380.99 438.81 389.35 438.81C391.69 438.81 393.9 439.82 395.88 441.62C401.92 403.97 418.56 355.04 412.16 354.12C404.7 353.82 371.01 376.48 361.47 419.42C354.08 446.16 351.79 470.32 354.91 485.62C358.95 485.9 370.93 481.61 375.18 480.56Z" fill="white"/>
<path d="M460.71 357.98C444.36 353.23 416.63 385.28 403.8 420.03C391.1 460.29 398.43 498.16 414.71 503.76C420.16 505.48 426.02 505.1 431.9 502.76C426.37 497.15 427.02 482.83 433.91 468.52C441.63 452.49 452.71 442.1 462.13 446.36C465.66 448.06 467.63 452.25 468.02 457.79C469.03 455.14 469.99 452.41 470.9 449.55C483.6 409.3 474.48 362.78 460.71 357.98Z" fill="white"/>
<path d="M444.06 598.57C419.91 586.04 434.89 550.26 456.81 541.32C474.92 534.16 456.36 546.02 463.3 564.13C461.29 528.57 495.59 514.35 499.08 512.69C510.49 508.22 509.59 511.57 506.91 519.4C505.12 525 453.9 600.59 444.06 598.57Z" fill="#E31F2B"/>
<path d="M421.03 612.33C421.03 613.75 418.98 614.9 416.44 614.9C413.91 614.9 411.86 613.75 411.86 612.33C411.86 610.91 413.91 609.76 416.44 609.76C418.98 609.76 421.03 610.91 421.03 612.33Z" fill="#FF4000"/>
<path d="M395.14 461.4C394.14 465.52 391.57 468.43 389.41 467.9C387.25 467.37 386.3 463.61 387.31 459.49C388.31 455.37 390.88 452.46 393.04 452.99C395.2 453.52 396.14 457.29 395.14 461.4Z" fill="white"/>
<path d="M453.11 477.66C451.05 482.96 447.57 486.55 445.34 485.68C443.1 484.81 442.96 479.81 445.01 474.52C447.07 469.22 450.54 465.63 452.78 466.5C455.03 467.37 455.17 472.37 453.11 477.66Z" fill="white"/>
</g>
<defs>
<clipPath id="clip0_412_1975">
<rect width="412.39" height="526.11" fill="white" transform="translate(194 137)"/>
</clipPath>
</defs>
</svg>
